<!-- Generator: Adobe Illustrator 19.2.1, SVG Export Plug-In  -->
<svg version="1.1"
	 xmlns="http://www.w3.org/2000/svg" xmlns:xlink="http://www.w3.org/1999/xlink" xmlns:a="http://ns.adobe.com/AdobeSVGViewerExtensions/3.0/"
	 x="0px" y="0px" width="26.7px" height="22.3px" viewBox="0 0 26.7 22.3" enable-background="new 0 0 26.7 22.3"
	 xml:space="preserve">
<defs>
</defs>
<g>
	<g>
		<path fill="#FFFFFF" d="M26.2,12.5L21.6,1.3C21.2,0.6,20.2,0,19.4,0h-3l0.6,6h4l-7.6,6.3L5.8,6h4l0.6-6h-3C6.5,0,5.5,0.6,5.1,1.3
			L0.5,12.5c-0.4,0.7-0.6,2-0.4,2.8l1,5.5c0.1,0.8,0.9,1.5,1.8,1.5h21.1c0.8,0,1.6-0.7,1.8-1.5l1-5.5C26.8,14.5,26.6,13.2,26.2,12.5
			z M24.2,16.4l-0.4,2.2c-0.1,0.9-0.9,1.6-1.7,1.6H4.6c-0.8,0-1.6-0.7-1.7-1.6l-0.4-2.2c-0.1-0.9,0.5-1.6,1.3-1.6h19.1
			C23.7,14.8,24.3,15.5,24.2,16.4z"/>
	</g>
</g>
</svg>
