<!-- Generator: Adobe Illustrator 19.2.1, SVG Export Plug-In  -->
<svg version="1.1"
	 xmlns="http://www.w3.org/2000/svg" xmlns:xlink="http://www.w3.org/1999/xlink" xmlns:a="http://ns.adobe.com/AdobeSVGViewerExtensions/3.0/"
	 x="0px" y="0px" width="19.6px" height="23.4px" viewBox="0 0 19.6 23.4" enable-background="new 0 0 19.6 23.4"
	 xml:space="preserve">
<defs>
</defs>
<g>
	<path fill="#AB2D3E" d="M5.2,23.4l1.3-6.3H4c-2.2,0-4-1.8-4-4V4c0-2.2,1.8-4,4-4h11.6c2.2,0,4,1.8,4,4v9.1c0,2.2-1.8,4-4,4h-2.9
		L5.2,23.4z M4,1.4C2.6,1.4,1.4,2.6,1.4,4v9.1c0,1.4,1.2,2.6,2.6,2.6h4.2l-0.8,4.1l4.9-4.1h3.4c1.4,0,2.6-1.2,2.6-2.6V4
		c0-1.4-1.2-2.6-2.6-2.6H4z"/>
</g>
</svg>
