<?xml version="1.0" encoding="utf-8"?>
<!-- Generator: Adobe Illustrator 18.1.1, SVG Export Plug-In . SVG Version: 6.00 Build 0)  -->
<!DOCTYPE svg PUBLIC "-//W3C//DTD SVG 1.1//EN" "http://www.w3.org/Graphics/SVG/1.1/DTD/svg11.dtd">
<svg version="1.1" id="Layer_1" xmlns="http://www.w3.org/2000/svg" xmlns:xlink="http://www.w3.org/1999/xlink" x="0px" y="0px"
	 viewBox="48 -7 155.9 75" enable-background="new 48 -7 155.9 75" xml:space="preserve">
<g>
	<g>
		<g>
			<path fill="#B0B7BC" d="M55.1,66c-0.9,0-1.3-0.4-1.3-1.2c0-0.2,0-0.4,0.1-0.7l0.1-0.3c-0.8,1.3-1.8,2.1-2.7,2.1
				c-0.5,0-0.8-0.7-0.8-1.9c0-2.4,1.3-4.3,3-4.3c0.2,0,0.5,0,0.8,0.1c0.4,0.1,0.6,0.1,1.2,0.3l-0.7,4.2c0,0.2-0.1,0.4-0.1,0.5
				c0,0.3,0.3,0.5,0.7,0.5c0.2,0,0.4-0.1,0.6-0.2c1-0.4,1.5-1.3,1.5-2.6c0-2.2-1.8-4-4.1-4c-2.6,0-4.5,1.9-4.5,4.5
				c0,1.4,0.5,2.4,1.5,3.2c0.8,0.6,1.6,0.9,2.7,0.9c0.8,0,1.3-0.1,2-0.4l0.3,0.8c-0.2,0.1-0.3,0.2-0.4,0.2c-0.6,0.2-1.3,0.3-2,0.3
				c-1.4,0-2.3-0.3-3.3-1.1c-1.2-1-1.7-2.2-1.7-3.8c0-3.2,2.2-5.4,5.4-5.4c2.9,0,4.9,2,4.9,4.8C58.3,64.7,57.1,66,55.1,66z
				 M53.4,60.6c-1.1,0-2,1.6-2,3.5c0,0.5,0.1,0.8,0.4,0.8c0.2,0,0.5-0.2,0.9-0.7c0.2-0.2,0.4-0.4,0.6-0.7c0.5-0.7,0.8-1.3,0.9-2
				l0.2-0.7C54,60.7,53.7,60.6,53.4,60.6z"/>
		</g>
		<g>
			<path fill="#B0B7BC" d="M63.6,62.8c-0.3,0-0.6,0-1.3-0.1v3.2h-1v-8.4h2.6c1,0,1.6,0.2,2.1,0.7c0.4,0.4,0.7,1,0.7,1.8
				C66.6,61.7,65.5,62.8,63.6,62.8z M65.1,58.7c-0.3-0.3-0.6-0.4-1.3-0.4h-1.4v3.5c0.6,0.1,0.8,0.1,1.1,0.1c0.5,0,0.8-0.1,1.1-0.2
				c0.6-0.3,1-0.9,1-1.7C65.6,59.5,65.4,59,65.1,58.7z"/>
			<path fill="#B0B7BC" d="M68.4,65.9v-8.4h4.7v0.9h-3.7v2.8h3.1V62h-3.1v3h3.8v0.9H68.4z"/>
			<path fill="#B0B7BC" d="M81,66l-4.3-6.6c0-0.1-0.1-0.2-0.2-0.3c-0.1-0.1-0.1-0.1-0.1-0.2c-0.1-0.1-0.1-0.2-0.1-0.3v7.3h-1v-8.4
				h1.4l4.2,6.4c0,0.1,0.1,0.1,0.1,0.2c0.1,0.1,0.1,0.1,0.2,0.4c0,0,0,0.1,0.1,0.1v-7.1h1V66H81z"/>
			<path fill="#B0B7BC" d="M90.7,66l-4.3-6.6c0-0.1-0.1-0.2-0.2-0.3c-0.1-0.1-0.1-0.1-0.1-0.2C86,58.8,86,58.7,86,58.6v7.3h-1v-8.4
				h1.4l4.2,6.4c0,0.1,0.1,0.1,0.1,0.2c0.1,0.1,0.1,0.1,0.2,0.4c0,0,0,0.1,0.1,0.1v-7.1h1V66H90.7z"/>
		</g>
		<g>
			<path fill="#B0B7BC" d="M105.2,65.9v-7.4c-0.1,0.4-0.1,0.6-0.3,1l-2.5,6.3h-1l-2.3-6.2c-0.2-0.5-0.2-0.6-0.3-1.1v7.3h-1v-8.4h1.4
				l2.6,6.7c0.1,0.3,0.1,0.4,0.2,0.6c0.1-0.3,0.1-0.4,0.2-0.6l2.7-6.7h1.4v8.4L105.2,65.9L105.2,65.9z"/>
			<path fill="#B0B7BC" d="M114.4,65.4c-0.6,0.5-1.4,0.8-2.3,0.8s-1.7-0.3-2.3-0.8c-0.7-0.6-1-1.3-1-2.3v-5.5h1v5.2
				c0,1,0.1,1.3,0.5,1.8c0.4,0.5,1,0.7,1.8,0.7c0.7,0,1.3-0.3,1.8-0.7c0.4-0.4,0.5-0.7,0.5-1.8v-5.2h1V63
				C115.4,64.1,115.1,64.8,114.4,65.4z"/>
			<path fill="#B0B7BC" d="M122.2,58.9c-0.4-0.3-0.6-0.3-0.9-0.4s-0.8-0.2-1.2-0.2c-1,0-1.6,0.5-1.6,1.2c0,0.6,0.4,0.9,2.1,1.9
				c0.6,0.3,1,0.6,1.3,0.9c0.4,0.3,0.7,0.9,0.7,1.5c0,1.4-1.1,2.3-2.8,2.3c-0.6,0-1.1-0.1-1.6-0.3c-0.3-0.1-0.5-0.3-1.1-0.6l0.5-0.8
				c0.5,0.3,0.7,0.4,1,0.5c0.4,0.1,0.8,0.2,1.2,0.2c1,0,1.6-0.5,1.6-1.3c0-0.2,0-0.4-0.1-0.6c-0.1-0.3-0.4-0.5-0.7-0.7
				c-0.1-0.1-0.6-0.3-1.4-0.8c-1.3-0.7-1.8-1.3-1.8-2.2c0-1.3,1.1-2.2,2.8-2.2c0.5,0,1,0.1,1.4,0.2c0.3,0.1,0.5,0.2,1,0.5
				L122.2,58.9z"/>
			<path fill="#B0B7BC" d="M124.8,65.9v-8.4h4.7v0.9h-3.7v2.8h3.1V62h-3.1v3h3.8v0.9H124.8z"/>
			<path fill="#B0B7BC" d="M137.1,65.4c-0.6,0.5-1.4,0.8-2.3,0.8c-0.9,0-1.7-0.3-2.3-0.8c-0.7-0.6-1-1.3-1-2.3v-5.5h1v5.2
				c0,1,0.1,1.3,0.5,1.8c0.4,0.5,1,0.7,1.8,0.7c0.8,0,1.3-0.3,1.8-0.7c0.4-0.4,0.5-0.7,0.5-1.8v-5.2h1V63
				C138,64.1,137.8,64.8,137.1,65.4z"/>
			<path fill="#B0B7BC" d="M148,65.9v-7.4c-0.1,0.4-0.1,0.6-0.3,1l-2.5,6.3h-1l-2.3-6.2c-0.2-0.5-0.2-0.6-0.3-1.1v7.3h-1v-8.4h1.4
				l2.6,6.7c0.1,0.3,0.1,0.4,0.2,0.6c0.1-0.3,0.1-0.4,0.2-0.6l2.7-6.7h1.4v8.4L148,65.9L148,65.9z"/>
		</g>
	</g>
	<g>
		<path fill="#144984" d="M49.8,7.9h6.3c3.7,0,6.1,2.1,6.1,5.3l0,0c0,3.6-2.9,5.4-6.4,5.4h-3.2v5.1h-2.8V7.9z M55.9,16.2
			c2.1,0,3.4-1.2,3.4-2.8l0,0c0-1.9-1.3-2.8-3.4-2.8h-3.3v5.7h3.3V16.2z"/>
		<path fill="#144984" d="M64.7,17.1V7.9h2.8V17c0,3,1.5,4.6,4,4.6s4-1.5,4-4.4V8h2.8v9c0,4.8-2.7,7.2-6.9,7.2
			C67.4,24.1,64.7,21.7,64.7,17.1z"/>
		<path fill="#144984" d="M82.3,7.9h7.2c1.8,0,3.3,0.5,4.2,1.4c0.7,0.7,1.1,1.6,1.1,2.6l0,0c0,1.9-1.1,2.9-2.3,3.6
			c1.9,0.6,3.2,1.7,3.2,3.9l0,0c0,2.8-2.3,4.4-5.9,4.4h-7.4L82.3,7.9L82.3,7.9z M88.9,14.6c1.8,0,3-0.7,3-2.2l0,0c0-1.3-1-2-2.8-2
			h-4v4.2C85.1,14.6,88.9,14.6,88.9,14.6z M89.7,21.4c1.9,0,3.1-0.8,3.1-2.2l0,0c0-1.3-1.1-2.1-3.3-2.1H85v4.4L89.7,21.4L89.7,21.4z
			"/>
		<path fill="#144984" d="M98.7,7.9h2.8v13.4h8.4v2.6H98.7V7.9z"/>
		<path fill="#144984" d="M113,7.9h2.8v16H113V7.9z"/>
		<path fill="#144984" d="M119.3,15.9L119.3,15.9c0-4.6,3.4-8.3,8.2-8.3c2.9,0,4.7,1,6.2,2.5l-1.7,2.1c-1.3-1.2-2.6-2-4.5-2
			c-3.1,0-5.3,2.5-5.3,5.6l0,0c0,3.1,2.2,5.7,5.3,5.7c2,0,3.2-0.8,4.6-2.1l1.8,1.8c-1.7,1.7-3.5,2.8-6.5,2.8
			C122.8,24.1,119.3,20.5,119.3,15.9z"/>
	</g>
	<g>
		<path fill="#144984" d="M50.7-5.2H48V-7h7.3v1.8h-2.7v7h-1.9V-5.2z"/>
		<path fill="#144984" d="M57.4-7h1.9v3.5h3.6V-7h1.9v8.8h-1.9v-3.5h-3.6v3.5h-1.9V-7z"/>
		<path fill="#144984" d="M67.6-7h6.6v1.7h-4.7v1.8h4.2v1.7h-4.2v1.9h4.8v1.7h-6.7C67.6,1.8,67.6-7,67.6-7z"/>
	</g>
	<path fill="#AB2D3E" d="M48,40.6L48,40.6c0-5,3.7-9.1,8.9-9.1c3.2,0,5.1,1.1,6.8,2.8l-1.4,1.5c-1.5-1.4-3.1-2.4-5.5-2.4
		c-3.9,0-6.8,3.2-6.8,7.2l0,0c0,4.1,2.9,7.2,6.8,7.2c2.4,0,4-0.9,5.7-2.5l1.3,1.3c-1.8,1.9-3.8,3.1-7,3.1C51.7,49.6,48,45.6,48,40.6
		z"/>
	<path fill="#AB2D3E" d="M67.3,31.8h2v15.7h9.9v1.8H67.3V31.8z"/>
	<path fill="#AB2D3E" d="M89.3,31.6h1.9l8,17.7H97l-2-4.6h-9.6l-2.1,4.6h-2L89.3,31.6z M94.2,42.9l-4-9l-4,9H94.2z"/>
	<path fill="#AB2D3E" d="M101.1,46.8l1.2-1.5c1.8,1.7,3.6,2.5,6,2.5c2.4,0,3.9-1.3,3.9-3l0,0c0-1.6-0.9-2.6-4.6-3.3
		c-4-0.9-5.9-2.2-5.9-5.1l0,0c0-2.8,2.4-4.8,5.8-4.8c2.6,0,4.4,0.7,6.2,2.2l-1.2,1.5c-1.6-1.3-3.3-1.9-5.1-1.9
		c-2.3,0-3.7,1.3-3.7,2.8l0,0c0,1.7,0.9,2.6,4.8,3.4c3.9,0.9,5.7,2.3,5.7,5v0.1c0,3-2.5,5-6,5C105.5,49.6,103.2,48.6,101.1,46.8z"/>
	<path fill="#AB2D3E" d="M116.9,46.8l1.2-1.5c1.8,1.7,3.6,2.5,6,2.5s3.9-1.3,3.9-3l0,0c0-1.6-0.9-2.6-4.6-3.3
		c-4-0.9-5.9-2.2-5.9-5.1l0,0c0-2.8,2.4-4.8,5.8-4.8c2.6,0,4.4,0.7,6.2,2.2l-1.2,1.5c-1.6-1.3-3.3-1.9-5.1-1.9
		c-2.3,0-3.7,1.3-3.7,2.8l0,0c0,1.7,0.9,2.6,4.8,3.4c3.9,0.9,5.7,2.3,5.7,5v0.1c0,3-2.5,5-6,5C121.3,49.6,119,48.6,116.9,46.8z"/>
	<path fill="#AB2D3E" d="M134.1,31.8h7.5c2.2,0,3.9,0.7,5,1.8c0.9,0.9,1.4,2.1,1.4,3.5l0,0c0,2.9-2,4.6-4.8,5.1l5.4,7.2h-2.4
		l-5.1-6.8h-5v6.8h-2V31.8z M141.5,40.7c2.6,0,4.5-1.4,4.5-3.6l0,0c0-2.2-1.7-3.5-4.5-3.5h-5.4v7.1H141.5z"/>
	<path fill="#AB2D3E" d="M187.1,31.8h2l6.4,9.6l6.4-9.6h2v17.6h-2V35.1l-6.4,9.4h-0.1l-6.4-9.4v14.2h-1.9V31.8z"/>
	<g>
		<path fill="#144984" d="M164.4,52.9l-6.8-5.7h-2.5c-2,0-3.6-1.6-3.6-3.6v-8c0-2,1.6-3.6,3.6-3.6h10.3c2,0,3.6,1.6,3.6,3.6v8
			c0,2-1.6,3.6-3.6,3.6h-2.1L164.4,52.9z M155.1,33.3c-1.2,0-2.2,1-2.2,2.2v8c0,1.2,1,2.2,2.2,2.2h3l4.1,3.5l-0.7-3.5h3.8
			c1.2,0,2.2-1,2.2-2.2v-8c0-1.2-1-2.2-2.2-2.2H155.1z"/>
	</g>
	<g>
		<path fill="#AB2D3E" d="M169.7,50.4L171,44h-2.5c-2.2,0-4-1.8-4-4v-9c0-2.2,1.8-4,4-4h11.6c2.2,0,4,1.8,4,4v9c0,2.2-1.8,4-4,4
			h-2.9L169.7,50.4z M168.6,28.4c-1.4,0-2.6,1.2-2.6,2.6v9c0,1.4,1.2,2.6,2.6,2.6h4.2l-0.8,4.1l4.9-4.1h3.4c1.4,0,2.6-1.2,2.6-2.6
			v-9c0-1.4-1.2-2.6-2.6-2.6H168.6z"/>
	</g>
</g>
</svg>
